<svg id="Capa_10" data-name="Capa 10" xmlns="http://www.w3.org/2000/svg" xmlns:xlink="http://www.w3.org/1999/xlink" viewBox="0 0 770.52 750.49"><defs><style>.cls-1{fill:url(#Turquesa);}.cls-2{fill:#fef2f5;}.cls-3{fill:#a46872;}.cls-4{fill:#cb9998;}.cls-5{fill:none;stroke:#cb9998;stroke-linecap:square;stroke-miterlimit:10;stroke-width:16px;}.cls-6{fill:#fab90e;}</style><linearGradient id="Turquesa" x1="484.17" y1="75.86" x2="484.17" y2="75.86" gradientUnits="userSpaceOnUse"><stop offset="0" stop-color="#16b5c2"/><stop offset="0.49" stop-color="#acd9da"/><stop offset="1" stop-color="#055c79"/></linearGradient></defs><path class="cls-1" d="M484.17,75.86" transform="translate(-31.15 -22.71)"/><path class="cls-2" d="M462.4,64.56a38.21,38.21,0,0,0-2-10.38A45.38,45.38,0,0,0,438.05,27.6a40.7,40.7,0,0,0-13.25-4.33c-1.49-.22-3-.32-4.5-.48l-.36-.08h-3.83a2.83,2.83,0,0,1-.4.08,44.79,44.79,0,0,0-29.37,12.67,43.18,43.18,0,0,0-12.45,22.26A42.21,42.21,0,0,0,373,68.53a43.86,43.86,0,0,0,1.66,10.3,2.81,2.81,0,0,0,.1.31s0,0,.09.12c.06-.21.12-.38.16-.55.29-1.15.56-2.3.86-3.45A22.26,22.26,0,0,1,389.92,60a19.54,19.54,0,0,1,14.88.82A22.93,22.93,0,0,1,407.11,62c21.2-19.8,37.15,9.75,46,34.11,1.46-2.58,2.82-5.21,4-7.91.78-1.73,1.65-3.43,2.38-5.18a39.43,39.43,0,0,0,2.68-10.36c.09-.74.13-1.49.19-2.23,0-.15.05-.3.08-.45V64.87A2,2,0,0,1,462.4,64.56Z" transform="translate(-31.15 -22.71)"/><path class="cls-3" d="M405.23,197.59a54.47,54.47,0,0,1-1.2-7.41,52.13,52.13,0,0,1-.14-7.6,39.21,39.21,0,0,1,3.75-14.8,109.82,109.82,0,0,1,5.53-10.17l1.56-2.55s-24.93,0-7.09-57.35L406.07,99c-3,2.5-6,5-8.86,7.62a97.17,97.17,0,0,0-14.45,16.78,67.65,67.65,0,0,0-8.47,17.51,56.67,56.67,0,0,0-2.21,10.21c-.19,1.62-.3,3.26-.45,4.88,0,.15-.07.3-.1.44V161c.06.4.14.79.16,1.19a67.34,67.34,0,0,0,1.82,12.32A73.86,73.86,0,0,0,378,187.89a52.1,52.1,0,0,0,10.55,15.3,59.33,59.33,0,0,0,12.28,9.33,85.21,85.21,0,0,0,12.84,6c.14,0,.28.13.42.19h.18c-1.11-2-2.27-3.9-3.31-5.9A64.5,64.5,0,0,1,405.23,197.59Z" transform="translate(-31.15 -22.71)"/><path class="cls-4" d="M438.85,118.71c4.18-6.25,8.29-12.55,12.17-19,.36-.59.71-1.18,1.06-1.78s.69-1.19,1-1.8c-8.85-24.36-24.8-53.91-46-34.11a21.87,21.87,0,0,1,9.46,11.67,20.78,20.78,0,0,1,1.34,6.89,16.57,16.57,0,0,1-2.24,8.47,23.36,23.36,0,0,1-4.6,5.68c-.56.51-1.13,1-1.7,1.5s-1.15,1-1.73,1.47c-17.84,57.34,7.09,57.35,7.09,57.35,3.11-5,6.37-9.93,9.66-14.83C429.2,133.05,434.05,125.9,438.85,118.71Z" transform="translate(-31.15 -22.71)"/><circle class="cls-5" cx="369.45" cy="285.47" r="18.43"/><rect class="cls-6" x="703.52" y="185.4"/><path class="cls-4" d="M271.17,494.78l1.67-362.67L273,98.3l22.27,25.29L412,256.13,394.17,256,516.78,124.52l19.55-21-.13,28.55-1.88,407.34-.19-1.88c.1.48.29,1.27.45,1.94l.54,2.13c.39,1.43.79,2.86,1.22,4.3.86,2.87,1.81,5.74,2.82,8.58,2,5.7,4.34,11.31,6.89,16.81s5.41,10.84,8.46,16.06,6.44,10.21,10,15.1A155.87,155.87,0,0,0,589,628.71a139.23,139.23,0,0,0,30.09,19.17l2,1,2.07.85,4.14,1.7c.7.27,1.38.59,2.09.82l2.12.72,4.25,1.44c1.4.52,2.87.87,4.31,1.27l4.34,1.17c1.42.44,3,.71,4.47,1l4.54.94,2.31.48,2.35.53c1.44.31,2.89.6,4.34.85,2.9.5,5.83.89,8.76,1.15a108.55,108.55,0,0,0,35.13-2.55l2.14-.54,2.26-.6c1.44-.37,2.68-.75,4-1.2a56.51,56.51,0,0,0,7.63-3.27,55.32,55.32,0,0,0,23.28-23c.65-1.23,1.26-2.48,1.82-3.74.28-.65.53-1.23.77-1.86s.48-1.3.71-2A57.51,57.51,0,0,0,751,615a54.55,54.55,0,0,0,.45-16.58,55.81,55.81,0,0,0-1.69-8.22c-.13-.44-.26-.88-.35-1.31l-.29-1.17c-.18-.69-.36-1.39-.56-2.08-.39-1.38-.83-2.75-1.3-4.11a72.67,72.67,0,0,0-18.48-28.79c-1-1-2.12-2-3.26-3s-2.27-1.94-3.39-2.9-2.32-1.81-3.47-2.72-2.37-1.73-3.61-2.53a97.5,97.5,0,0,0-15.51-8.49c-2.72-1.18-5.48-2.28-8.3-3.23-1.41-.47-2.82-.93-4.25-1.35s-2.8-.8-4.42-1.2c-3.24-.9-6-1.69-9-2.37s-5.91-1.29-8.89-1.8a143.47,143.47,0,0,0-54.09,1.22l-9.23,2.09-9.35,2.05-9.34,2-4.64,1c-1.53.33-3.11.66-4.47,1l-9.1,2.38c-3.1.82-6.19,1.59-9.28,2.35q-9.27,2.34-18.53,4.56c-49.4,11.93-98.8,23.37-147.86,36-24.51,6.35-49,12.92-73.13,20.24l-9,2.8-4.53,1.4-4.47,1.49c-6,2-12,3.91-17.8,6.17l-8.81,3.27-8.91,3.48q-8.92,3.42-17.88,6.73c-6,2.22-12,4.37-17.94,6.51s-12,4.29-18.06,6.33-12.27,3.94-18.5,5.61S177.27,645,171,646.25s-12.65,2.4-19,3.32l-4.78.66-4.72.6c-3.15.44-6.43.81-9.65,1.09a197,197,0,0,1-38.86-.46,186.63,186.63,0,0,1-19.27-2.85A80.15,80.15,0,0,1,64.92,646c-1.79-.64-3.1-1.23-4.64-1.86s-3-1.29-4.54-2a49.57,49.57,0,0,1-8.9-5.35,37.68,37.68,0,0,1-7.46-7.62,42.06,42.06,0,0,1-7.55-19.44,79.45,79.45,0,0,1-.65-10l0-2.41,0-2.52c.06-1.68.15-3.36.32-5a103.11,103.11,0,0,1,8-28.64,73.58,73.58,0,0,1,4.8-8.81A75.3,75.3,0,0,1,57.15,537l.13-.12.12-.09a64.34,64.34,0,0,1,24.08-11.4c1.09-.25,2.19-.48,3.28-.68s2.32-.33,3.37-.47c2.13-.24,4.26-.46,6.4-.64q6.41-.55,12.85-.71a218.21,218.21,0,0,1,25.69,1c8.53.86,16.92,2.12,25.31,3.63s16.66,3.22,24.94,5.17c4.13,1,8.28,2,12.41,3.25s8.16,2.55,12.17,4c16,5.65,31.66,12.26,47.06,19.3s30.55,14.61,45.47,22.59c3.72,2,7.45,4,11.16,6.06l5.57,3.1L320,592.5c.91.53,1.78,1.13,2.68,1.69L344,607.83l85.27,54.59L514.49,717l5.33,3.41,1.33.85.64.41.67.39,2.74,1.51c3.69,2,7.44,3.9,11.22,5.75,7.54,3.71,15.24,7.16,22.89,10.7s15.37,6.87,23.19,10,15.75,5.93,23.76,8.5c16.06,5,32.34,9.51,49.06,11.51a248.93,248.93,0,0,0,50.39,1.41,251.48,251.48,0,0,0,25.06-3.13,198.11,198.11,0,0,0,24.7-5.3,186.57,186.57,0,0,0,46.2-20.21,186.83,186.83,0,0,1-46.07,20.66A197.25,197.25,0,0,1,730.89,769a249.32,249.32,0,0,1-75.74,2.43c-4.2-.51-8.39-1.11-12.56-1.83-2.08-.36-4.16-.75-6.25-1.15s-4.13-.94-6.18-1.43q-12.33-3-24.46-6.71t-24-8.33c-7.89-3.05-15.67-6.37-23.38-9.81s-15.43-6.85-23.06-10.52c-3.81-1.83-7.61-3.7-11.36-5.69l-2.81-1.52-.7-.39-.7-.44-1.34-.84L513,719.38,427.29,665.6l-85.73-53.77-21.43-13.45c-.9-.55-1.78-1.14-2.69-1.66l-2.76-1.5-5.51-3c-3.66-2-7.43-3.93-11.13-5.91-14.91-7.79-30-15.17-45.39-22S221.76,551,205.92,545.62q-5.92-2-11.92-3.77c-4-1.14-8-2.13-12.09-3.05-8.16-1.85-16.41-3.45-24.66-4.88s-16.55-2.56-24.81-3.33a212.73,212.73,0,0,0-24.87-.68q-6.21.21-12.41.8c-2.06.19-4.12.42-6.18.67-1,.15-2,.24-2.9.43s-1.94.4-2.9.64a56.7,56.7,0,0,0-21.24,10.28l.25-.21a67.14,67.14,0,0,0-15.69,21.8,96.07,96.07,0,0,0-7.06,26.2c-.15,1.49-.21,3-.25,4.47v2.24l0,2.35a72.66,72.66,0,0,0,.67,9,33.87,33.87,0,0,0,6.16,15.64,29.73,29.73,0,0,0,5.88,5.87,41.32,41.32,0,0,0,7.43,4.36c1.35.62,2.75,1.22,4.17,1.81s3,1.23,4.21,1.64a71.44,71.44,0,0,0,8.65,2.23,182,182,0,0,0,18.39,2.54,189.12,189.12,0,0,0,37.16.11c3.09-.3,6.12-.67,9.24-1.13l4.72-.65,4.64-.69q9.28-1.41,18.45-3.39a298.61,298.61,0,0,0,36.07-10.08c5.93-2.05,11.87-4.23,17.81-6.42s11.88-4.39,17.79-6.64,11.8-4.53,17.68-6.85l8.79-3.52,9-3.44c6-2.39,12.06-4.34,18.1-6.46l4.54-1.57,4.55-1.45,9.12-2.91c24.35-7.62,48.86-14.45,73.41-21.06,49.11-13.17,98.52-25.09,147.69-37.44q9.21-2.31,18.39-4.7c3.06-.8,6.12-1.58,9.15-2.42l9.29-2.51c1.72-.42,3.24-.76,4.82-1.11l4.65-1,9.26-2.07,9.23-2.12,9.31-2.19A157.24,157.24,0,0,1,667,509q4.92.79,9.78,1.88c3.21.71,6.56,1.63,9.45,2.4,1.46.35,3.17.8,4.77,1.26s3.23,1,4.83,1.48c3.21,1.05,6.36,2.26,9.48,3.58a113.44,113.44,0,0,1,17.91,9.6c1.44.91,2.81,1.93,4.21,2.9s2.73,2,4,3.11,2.67,2.18,3.87,3.25,2.53,2.22,3.76,3.41a87.78,87.78,0,0,1,22.58,34.49q.87,2.45,1.61,5c.24.83.48,1.67.7,2.5l.29,1.15a10.07,10.07,0,0,0,.27,1,71,71,0,0,1,2.23,10.39,70,70,0,0,1-.38,21.33,72,72,0,0,1-2.6,10.36c-.28.86-.57,1.68-.89,2.54s-.68,1.74-1,2.54c-.71,1.64-1.47,3.26-2.3,4.84a71.41,71.41,0,0,1-39.56,34.29c-1.67.59-3.46,1.15-5.08,1.58l-2.34.65-2.46.64a125.17,125.17,0,0,1-20.08,3.31,127.1,127.1,0,0,1-20.37,0c-3.39-.27-6.76-.69-10.12-1.24-1.68-.27-3.35-.59-5-.93l-1.25-.26-1.05-.23c-.71-.16-1.57-.31-2.35-.47l-4.79-1c-1.59-.32-3.18-.58-4.81-1l-4.86-1.27c-1.61-.43-3.24-.81-4.83-1.37l-4.78-1.57-2.38-.79c-.8-.26-1.57-.6-2.36-.9l-4.68-1.87-2.33-.94-2.29-1.07a156.14,156.14,0,0,1-34.12-21.3,173.26,173.26,0,0,1-27.64-29c-4-5.36-7.74-10.85-11.15-16.56s-6.56-11.54-9.43-17.52-5.43-12.1-7.72-18.34c-1.14-3.12-2.22-6.26-3.2-9.47-.5-1.59-1-3.21-1.42-4.84l-.66-2.48c-.22-.86-.41-1.61-.64-2.68l-.19-.86v-1l-1.87-407.34,19.41,7.6L411.83,272.27,402.91,282,394,272.1,276.08,140.64l22.42-8.53,1.67,362.67.06,14.5H271.1Z" transform="translate(-31.15 -22.71)"/></svg>